<?xml version="1.0" standalone="no"?>
<!DOCTYPE svg PUBLIC "-//W3C//DTD SVG 20010904//EN"
 "http://www.w3.org/TR/2001/REC-SVG-20010904/DTD/svg10.dtd">
<svg version="1.0" xmlns="http://www.w3.org/2000/svg"
 width="89.000000pt" height="87.000000pt" viewBox="0 0 89.000000 87.000000"
 preserveAspectRatio="xMidYMid meet">
<metadata>
Created by potrace 1.16, written by Peter Selinger 2001-2019
</metadata>
<g transform="translate(0.000000,87.000000) scale(0.100000,-0.100000)"
fill="#fa8907" stroke="none">
<path d="M337 810 c-61 -16 -136 -59 -188 -107 -27 -25 -49 -50 -49 -56 0 -5
18 10 39 35 37 41 142 108 171 108 7 0 -19 -16 -59 -36 -46 -23 -84 -51 -108
-79 -20 -24 -40 -42 -45 -39 -5 3 -21 -21 -36 -53 -24 -52 -27 -69 -27 -168 0
-103 2 -114 32 -177 17 -37 52 -88 78 -114 l47 -47 119 119 119 119 -47 47
-47 48 -73 -72 c-39 -39 -70 -75 -67 -80 3 -4 2 -8 -1 -8 -3 0 -16 21 -27 48
-29 64 -29 160 0 226 12 26 20 52 17 56 -8 13 102 108 141 120 19 7 37 10 40
8 2 -3 -14 -10 -36 -17 -23 -7 -61 -33 -92 -62 l-53 -51 53 45 c65 56 132 80
212 75 58 -3 60 -2 105 42 l45 45 -37 13 c-49 17 -177 24 -226 12z"/>
<path d="M550 625 l-115 -115 48 -47 47 -48 69 69 c39 38 68 73 65 77 -2 4 1
11 7 15 8 4 9 3 5 -4 -4 -7 -3 -12 2 -12 14 0 42 -98 42 -149 0 -105 -65 -208
-164 -258 -42 -22 -65 -27 -128 -27 -77 -1 -78 -1 -119 -42 l-42 -42 24 -13
c13 -7 65 -15 115 -17 110 -5 178 12 255 64 52 35 53 35 120 26 l68 -8 -16 35
c-35 80 -37 97 -18 143 28 71 31 174 7 255 -22 73 -84 169 -126 197 -14 9 -27
16 -28 16 -2 0 -55 -52 -118 -115z"/>
</g>
</svg>
